<svg width="32" height="32" viewBox="0 0 32 32" fill="none" xmlns="http://www.w3.org/2000/svg">
<path d="M16.16 17.04C16.0538 17.0267 15.9463 17.0267 15.84 17.04C14.7093 17.002 13.6376 16.5258 12.8514 15.7123C12.0652 14.8987 11.626 13.8114 11.6267 12.68C11.6267 10.2667 13.5733 8.30668 16 8.30668C17.1459 8.30469 18.2467 8.75309 19.0651 9.55521C19.8835 10.3573 20.3539 11.4489 20.3749 12.5947C20.3958 13.7404 19.9658 14.8485 19.1773 15.68C18.3889 16.5116 17.3052 17 16.16 17.04V17.04ZM24.9867 25.84C22.5364 28.0921 19.3281 29.3393 16 29.3333C12.5333 29.3333 9.38667 28.0133 7.01334 25.84C7.14667 24.5867 7.94667 23.36 9.37334 22.4C13.0267 19.9733 19 19.9733 22.6267 22.4C24.0533 23.36 24.8533 24.5867 24.9867 25.84V25.84Z" stroke="black" stroke-width="1.5" stroke-linecap="round" stroke-linejoin="round"/>
<path d="M16 29.3333C23.364 29.3333 29.3333 23.364 29.3333 16C29.3333 8.63599 23.364 2.66666 16 2.66666C8.63599 2.66666 2.66666 8.63599 2.66666 16C2.66666 23.364 8.63599 29.3333 16 29.3333Z" stroke="black" stroke-width="1.5" stroke-linecap="round" stroke-linejoin="round"/>
</svg>
