<svg width="113" height="30" viewBox="0 0 113 30" fill="none" xmlns="http://www.w3.org/2000/svg">
<path d="M6.244 5.296C5.068 5.33333 4.16267 5.78133 3.528 6.64C2.912 7.49867 2.604 8.98267 2.604 11.092C2.604 11.7827 2.66933 12.268 2.8 12.548C2.93067 12.8093 0.98 15.4227 0.98 15.46C-0.0279999 15.46 1.232 12.7907 0.728 12.38C0.242667 11.9507 0 11.2507 0 10.28C0 8.95467 0.326667 7.75067 0.98 6.668C1.63333 5.56667 5.59134 1.672 7.01001 1C8.44734 0.328 7.34533 3 9.548 3C9.996 3 10.5933 3.04667 11.34 3.14C12.684 3.27067 13.636 3.336 14.196 3.336C15.1853 3.336 18.3984 0.224 19.0891 0C19.0331 0.168 16.5573 3.54133 16.408 4.12C16.2587 4.68 15.988 5.16533 15.596 5.576C15.2227 5.968 14.7093 6.22933 14.056 6.36C12.9547 6.36 11.648 6.18267 10.136 5.828L6.244 12.1L13.048 11.4L12.6 13.472H8.512L5.01001 23.776L2.212 24L6.244 5.296Z" fill="#FF8282"/>
<path d="M17.9691 24.112C16.5878 24.112 15.4958 23.7573 14.6931 23.048C13.8904 22.3387 13.4891 21.2187 13.4891 19.688C13.4891 18.4187 13.7504 17.0093 14.2731 15.46C14.7958 13.9107 15.6358 12.576 16.7931 11.456C17.9504 10.3173 21.7584 6.444 23.5131 6.444C25.9024 6.444 24.7451 11.2413 24.7451 14.228V14.256C24.8011 14.2747 24.9038 14.284 25.0531 14.284C25.6691 14.284 26.3784 14.1253 27.1811 13.808C27.9838 13.472 28.7118 13.0707 29.3651 12.604L29.6171 13.36C29.0758 13.9387 28.3664 14.4333 27.4891 14.844C26.6304 15.236 25.6878 15.516 24.6611 15.684C24.5118 17.3827 24.1291 18.8667 23.5131 20.136C22.8971 21.4053 22.1038 22.3853 21.1331 23.076C20.1624 23.7667 19.1078 24.112 17.9691 24.112ZM19.0891 21.592C19.5371 21.592 19.9851 21.34 20.4331 20.836C20.8811 20.3133 21.2731 19.6133 21.6091 18.736C21.9451 17.84 22.1878 16.8507 22.3371 15.768C21.8331 15.656 21.5811 15.264 21.5811 14.592C21.5811 13.8267 21.8704 13.3227 22.4491 13.08C22.4118 12.464 22.3184 12.044 22.1691 11.82C22.0198 11.5773 21.7584 11.456 21.3851 11.456C20.7691 11.456 20.1718 11.904 19.5931 12.8C19.0144 13.696 18.5478 14.7693 18.1931 16.02C17.8384 17.2707 17.6611 18.372 17.6611 19.324C17.6611 20.22 17.7638 20.8267 17.9691 21.144C18.1744 21.4427 18.5478 21.592 19.0891 21.592Z" fill="black"/>
<path d="M30.2738 24.112C28.8925 24.112 27.8005 23.7573 26.9978 23.048C26.1951 22.3387 25.7938 21.2187 25.7938 19.688C25.7938 18.4187 26.0551 17.0093 26.5778 15.46C27.1005 13.9107 27.9405 12.576 29.0978 11.456C30.2551 10.3173 34.0631 6.36 35.8178 6.36C38.2071 6.36 37.0498 11.2413 37.0498 14.228V14.256C37.1058 14.2747 37.2085 14.284 37.3578 14.284C37.9738 14.284 38.6831 14.1253 39.4858 13.808C40.2885 13.472 41.0165 13.0707 41.6698 12.604L41.9218 13.36C41.3805 13.9387 40.6711 14.4333 39.7938 14.844C38.9351 15.236 37.9925 15.516 36.9658 15.684C36.8165 17.3827 36.4338 18.8667 35.8178 20.136C35.2018 21.4053 34.4085 22.3853 33.4378 23.076C32.4671 23.7667 31.4125 24.112 30.2738 24.112ZM31.3938 21.592C31.8418 21.592 32.2898 21.34 32.7378 20.836C33.1858 20.3133 33.5778 19.6133 33.9138 18.736C34.2498 17.84 34.4925 16.8507 34.6418 15.768C34.1378 15.656 33.8858 15.264 33.8858 14.592C33.8858 13.8267 34.1751 13.3227 34.7538 13.08C34.7165 12.464 34.6231 12.044 34.4738 11.82C34.3245 11.5773 34.0631 11.456 33.6898 11.456C33.0738 11.456 32.4765 11.904 31.8978 12.8C31.3191 13.696 30.8525 14.7693 30.4978 16.02C30.1431 17.2707 29.9658 18.372 29.9658 19.324C29.9658 20.22 30.0685 20.8267 30.2738 21.144C30.4791 21.4427 30.8525 21.592 31.3938 21.592Z" fill="black"/>
<path d="M41.8505 24.168C40.7865 24.168 39.8998 23.804 39.1905 23.076C38.4812 22.348 38.1265 21.2093 38.1265 19.66C38.1265 18.2787 38.3971 16.832 38.9385 15.32C39.4985 13.7893 40.3198 12.5013 41.4025 11.456C42.5038 10.392 43.8105 9.86 45.3225 9.86C46.0878 9.86 46.6572 9.99067 47.0305 10.252C47.4038 10.5133 47.5905 10.8587 47.5905 11.288V11.4L49.7745 6.948L55.01 0L49.8865 19.52C49.8118 19.8 49.7745 20.0707 49.7745 20.332C49.7745 21.0787 50.1571 21.452 50.9225 21.452C51.2585 21.452 54.7487 19.38 55.01 19.268C54.9353 20.2013 51.4078 22.936 50.8105 23.44C50.2318 23.9253 49.5411 24.168 48.7385 24.168C47.9918 24.168 47.3572 23.9813 46.8345 23.608C46.3305 23.216 45.9945 22.628 45.8265 21.844C44.7065 23.3933 43.3811 24.168 41.8505 24.168ZM43.6705 21.452C44.0812 21.452 44.4918 21.2747 44.9025 20.92C45.3318 20.5653 45.6491 20.0707 45.8545 19.436L45.9665 18.988L47.5905 17C47.4225 16.3467 46.7878 11.596 46.1905 11.596C45.4438 11.596 44.7718 12.0347 44.1745 12.912C43.5771 13.7707 43.1105 14.816 42.7745 16.048C42.4385 17.2613 42.2705 18.3347 42.2705 19.268C42.2705 20.2013 42.4012 20.7987 42.6625 21.06C42.9425 21.3213 43.2785 21.452 43.6705 21.452Z" fill="black"/>
<path d="M65.9132 24.168C64.3452 24.168 63.1132 23.72 62.2172 22.824C61.3399 21.928 60.9012 20.5 60.9012 18.54C60.9012 16.8787 61.1999 15.012 61.7972 12.94C62.3945 10.868 63.2625 9.09467 64.4012 7.62C65.5585 6.14533 66.9212 5.408 68.4892 5.408C69.0492 5.408 69.5345 5.48267 69.9452 5.632C69.1239 6.11733 68.2753 7.676 67.51 9.188C66.7633 10.7 66.2119 11.8293 65.7452 13.696C65.2785 15.5627 65.0452 17.2147 65.0452 18.652C65.0452 19.66 65.1759 20.4533 65.4372 21.032C65.6985 21.6107 66.1092 21.9 66.6692 21.9C67.5839 21.9 68.0412 21.4427 68.9372 20.136C69.8519 18.8107 71.0465 16.9533 71.6252 14.956C72.2225 12.9587 72.5212 11.036 72.5212 9.188C72.5212 8.03067 72.4185 7.10667 72.2132 6.416C72.0265 5.70667 71.6719 5.17467 71.1492 4.82C70.6265 4.46533 69.8892 4.288 68.9372 4.288C67.4999 4.288 66.1652 4.58667 64.9332 5.184C63.7012 5.76267 62.7119 6.60267 61.9652 7.704C61.2372 8.78667 60.8732 10.0467 60.8732 11.484C60.8732 11.988 60.9199 12.3613 61.0132 12.604C61.1065 12.828 59.0252 15.7307 59.0252 15.768C58.0919 15.768 59.5105 12.8093 59.0252 12.436C58.5585 12.0627 58.3252 11.4653 58.3252 10.644C58.3252 9.356 58.8479 8.124 59.8932 6.948C60.9572 5.772 62.6652 4.232 64.4012 3.504C66.1559 2.776 68.7236 1.5 70.6463 1.5C72.9796 1.5 73.6319 3.63467 74.6772 4.904C75.7225 6.17333 76.2452 7.928 76.2452 10.168C76.2452 12.1653 75.8719 14.2467 75.1252 16.412C74.3785 18.5773 73.2212 20.416 71.6532 21.928C70.1039 23.4213 68.1905 24.168 65.9132 24.168Z" fill="black"/>
<path d="M73.9503 29.472C73.0729 29.472 72.3076 29.1827 71.6543 28.604C70.9823 28.044 70.6463 27.3253 70.6463 26.448C70.6463 25.6453 70.8516 24.9827 71.2623 24.46C71.673 23.9373 72.2143 23.5173 72.8863 23.2C73.5396 22.9013 74.4076 22.584 75.4903 22.248L78.8503 6.26C79.2236 4.468 79.8769 3.22667 80.8103 2.536C81.7623 1.84533 84.7116 0 85.8503 0C86.4849 0 85.1689 1.65867 85.7103 1.976C86.2703 2.29333 86.681 2.72267 86.9423 3.264C87.8569 2.088 91.4316 0 93.0743 0C93.9516 0 92.4209 1.78933 93.0743 2.368C93.7463 2.928 94.0823 3.64667 94.0823 4.524C94.0823 4.95333 94.0543 5.336 93.9983 5.672H92.6823C92.7196 5.26133 92.7383 5.00933 92.7383 4.916C92.7383 4.61733 92.6356 4.384 92.4303 4.216C92.225 4.048 91.973 3.964 91.6743 3.964C90.7596 3.964 90.125 4.70133 89.7703 6.176L89.2663 8.472H92.0663L91.8143 9.592H89.0423L85.8783 24.712C85.5049 26.504 84.8423 27.7453 83.8903 28.436C82.9569 29.1267 81.9209 29.472 80.7823 29.472C79.2516 29.472 78.2436 28.884 77.7583 27.708C76.8623 28.884 75.5929 29.472 73.9503 29.472ZM85.2063 8.472L85.6823 6.26L85.8503 5.532C85.8876 5.23333 85.9063 5.028 85.9063 4.916C85.9063 4.61733 85.8036 4.384 85.5983 4.216C85.393 4.048 85.141 3.964 84.8423 3.964C83.9276 3.964 83.293 4.70133 82.9383 6.176L82.4343 8.472H85.2063ZM82.6023 20.932L84.9823 9.592L81.7903 10.168L80.7543 15.802L79.7183 21.436L82.6023 20.932ZM80.1383 26.98C80.4743 26.98 80.7916 26.8027 81.0903 26.448C81.3889 26.112 81.6223 25.5613 81.7903 24.796L82.4623 21.604L79.5783 22.136L79.0463 24.712C78.9156 25.2907 78.7383 25.86 78.5143 26.42C78.7196 26.7933 79.2609 26.98 80.1383 26.98ZM73.4743 26.98C73.8103 26.98 74.1276 26.8027 74.4263 26.448C74.725 26.112 74.9583 25.5613 75.1263 24.796L75.4623 23.172C74.4729 23.508 73.7076 23.8907 73.1663 24.32C72.6249 24.768 72.3543 25.3467 72.3543 26.056C72.3543 26.28 72.4663 26.4853 72.6903 26.672C72.9143 26.8773 73.1756 26.98 73.4743 26.98Z" fill="#FF8282"/>
<path d="M94.721 24.168C93.3397 24.168 91.8744 25.0293 91.109 24.32C91.6918 22.432 90.353 21.2467 90.353 19.716C90.353 18.428 90.605 17.0093 91.109 15.46C91.613 13.9107 92.4344 12.576 93.573 11.456C94.7117 10.3173 96.1584 9.748 97.913 9.748C99.9664 9.748 100.993 10.644 100.993 12.436C100.993 13.4813 100.694 14.4427 100.097 15.32C99.4997 16.1973 98.7064 16.9067 97.717 17.448C96.7277 17.9707 96.093 18.5773 94.973 18.652C94.9357 19.212 94.497 19.2773 94.497 19.464C94.497 20.3787 94.6557 21.004 94.973 21.34C95.2904 21.6573 95.8037 21.816 96.513 21.816C97.521 21.816 98.3797 21.5827 99.089 21.116C99.817 20.6493 100.61 19.94 101.469 18.988H102.421C100.349 22.4413 97.7824 24.168 94.721 24.168ZM93.0743 17C93.7649 16.9627 96.121 16.72 96.737 16.272C97.3717 15.824 97.8757 15.2547 98.249 14.564C98.641 13.8733 98.837 13.1453 98.837 12.38C98.837 11.6147 98.6037 11.232 98.137 11.232C97.465 11.232 96.8024 11.82 96.149 12.996C95.5144 14.172 93.3543 15.5067 93.0743 17Z" fill="black"/>
<path d="M103.367 10L110.423 6.64L104.431 13.528C105.066 12.968 108.239 10.7467 108.743 10.448C109.266 10.1493 109.826 10 110.423 10C111.02 10 111.487 10.2053 111.823 10.616C112.178 11.0267 112.355 11.5213 112.355 12.1C112.355 12.6413 112.178 13.1173 111.823 13.528C111.468 13.9387 110.974 14.144 110.339 14.144C109.928 14.144 109.648 14.0507 109.499 13.864C109.368 13.6587 109.266 13.3693 109.191 12.996C109.135 12.7533 109.079 12.576 109.023 12.464C108.967 12.352 108.864 12.296 108.715 12.296C108.323 12.296 107.987 12.38 107.707 12.548C107.446 12.6973 107.1 12.968 106.671 13.36L104.431 24H100.399L103.367 10Z" fill="black"/>
</svg>
