<svg width="226" height="60" viewBox="0 0 226 60" fill="none" xmlns="http://www.w3.org/2000/svg" xmlns:xlink="http://www.w3.org/1999/xlink">
<path d="M12.488,10.592C10.136,10.667 8.325,11.563 7.056,13.28C5.824,14.997 5.208,17.965 5.208,22.184C5.208,23.565 5.339,24.536 5.6,25.096C5.861,25.619 1.96,30.845 1.96,30.92C-0.056,30.92 2.464,25.581 1.456,24.76C0.485,23.901 0,22.501 0,20.56C0,17.909 0.653,15.501 1.96,13.336C3.267,11.133 11.183,3.344 14.02,2C16.895,0.656 14.691,6 19.096,6C19.992,6 21.187,6.093 22.68,6.28C25.368,6.541 27.272,6.672 28.392,6.672C30.371,6.672 36.797,0.448 38.178,0C38.066,0.336 33.115,7.083 32.816,8.24C32.517,9.36 31.976,10.331 31.192,11.152C30.445,11.936 29.419,12.459 28.112,12.72C25.909,12.72 23.296,12.365 20.272,11.656L12.488,24.2L26.096,22.8L25.2,26.944L17.024,26.944L10.02,47.552L4.424,48L12.488,10.592Z" fill="#FF8282"/>
<path d="M35.938,48.224C33.176,48.224 30.992,47.515 29.386,46.096C27.781,44.677 26.978,42.437 26.978,39.376C26.978,36.837 27.501,34.019 28.546,30.92C29.592,27.821 31.272,25.152 33.586,22.912C35.901,20.635 43.517,12.888 47.026,12.888C51.805,12.888 49.49,22.483 49.49,28.456L49.49,28.512C49.602,28.549 49.808,28.568 50.106,28.568C51.338,28.568 52.757,28.251 54.362,27.616C55.968,26.944 57.424,26.141 58.73,25.208L59.234,26.72C58.152,27.877 56.733,28.867 54.978,29.688C53.261,30.472 51.376,31.032 49.322,31.368C49.024,34.765 48.258,37.733 47.026,40.272C45.794,42.811 44.208,44.771 42.266,46.152C40.325,47.533 38.216,48.224 35.938,48.224ZM38.178,43.184C39.074,43.184 39.97,42.68 40.866,41.672C41.762,40.627 42.546,39.227 43.218,37.472C43.89,35.68 44.376,33.701 44.674,31.536C43.666,31.312 43.162,30.528 43.162,29.184C43.162,27.653 43.741,26.645 44.898,26.16C44.824,24.928 44.637,24.088 44.338,23.64C44.04,23.155 43.517,22.912 42.77,22.912C41.538,22.912 40.344,23.808 39.186,25.6C38.029,27.392 37.096,29.539 36.386,32.04C35.677,34.541 35.322,36.744 35.322,38.648C35.322,40.44 35.528,41.653 35.938,42.288C36.349,42.885 37.096,43.184 38.178,43.184Z" fill="#000000"/>
<path d="M60.548,48.224C57.785,48.224 55.601,47.515 53.996,46.096C52.39,44.677 51.588,42.437 51.588,39.376C51.588,36.837 52.11,34.019 53.156,30.92C54.201,27.821 55.881,25.152 58.196,22.912C60.51,20.635 68.126,12.72 71.636,12.72C76.414,12.72 74.1,22.483 74.1,28.456L74.1,28.512C74.212,28.549 74.417,28.568 74.716,28.568C75.948,28.568 77.366,28.251 78.972,27.616C80.577,26.944 82.033,26.141 83.34,25.208L83.844,26.72C82.761,27.877 81.342,28.867 79.588,29.688C77.87,30.472 75.985,31.032 73.932,31.368C73.633,34.765 72.868,37.733 71.636,40.272C70.404,42.811 68.817,44.771 66.876,46.152C64.934,47.533 62.825,48.224 60.548,48.224ZM62.788,43.184C63.684,43.184 64.58,42.68 65.476,41.672C66.372,40.627 67.156,39.227 67.828,37.472C68.5,35.68 68.985,33.701 69.284,31.536C68.276,31.312 67.772,30.528 67.772,29.184C67.772,27.653 68.35,26.645 69.508,26.16C69.433,24.928 69.246,24.088 68.948,23.64C68.649,23.155 68.126,22.912 67.38,22.912C66.148,22.912 64.953,23.808 63.796,25.6C62.638,27.392 61.705,29.539 60.996,32.04C60.286,34.541 59.932,36.744 59.932,38.648C59.932,40.44 60.137,41.653 60.548,42.288C60.958,42.885 61.705,43.184 62.788,43.184Z" fill="#000000"/>
<path d="M83.701,48.336C81.573,48.336 79.8,47.608 78.381,46.152C76.962,44.696 76.253,42.419 76.253,39.32C76.253,36.557 76.794,33.664 77.877,30.64C78.997,27.579 80.64,25.003 82.805,22.912C85.008,20.784 87.621,19.72 90.645,19.72C92.176,19.72 93.314,19.981 94.061,20.504C94.808,21.027 95.181,21.717 95.181,22.576L95.181,22.8L99.549,13.896L110.02,0L99.773,39.04C99.624,39.6 99.549,40.141 99.549,40.664C99.549,42.157 100.314,42.904 101.845,42.904C102.517,42.904 109.497,38.76 110.02,38.536C109.871,40.403 102.816,45.872 101.621,46.88C100.464,47.851 99.082,48.336 97.477,48.336C95.984,48.336 94.714,47.963 93.669,47.216C92.661,46.432 91.989,45.256 91.653,43.688C89.413,46.787 86.762,48.336 83.701,48.336ZM87.341,42.904C88.162,42.904 88.984,42.549 89.805,41.84C90.664,41.131 91.298,40.141 91.709,38.872L91.933,37.976L95.181,34C94.845,32.693 93.576,23.192 92.381,23.192C90.888,23.192 89.544,24.069 88.349,25.824C87.154,27.541 86.221,29.632 85.549,32.096C84.877,34.523 84.541,36.669 84.541,38.536C84.541,40.403 84.802,41.597 85.325,42.12C85.885,42.643 86.557,42.904 87.341,42.904Z" fill="#000000"/>
<path d="M131.826,48.336C128.69,48.336 126.226,47.44 124.434,45.648C122.68,43.856 121.802,41 121.802,37.08C121.802,33.757 122.4,30.024 123.594,25.88C124.789,21.736 126.525,18.189 128.802,15.24C131.117,12.291 133.842,10.816 136.978,10.816C138.098,10.816 139.069,10.965 139.89,11.264C138.248,12.235 136.551,15.352 135.02,18.376C133.527,21.4 132.424,23.659 131.49,27.392C130.557,31.125 130.09,34.429 130.09,37.304C130.09,39.32 130.352,40.907 130.874,42.064C131.397,43.221 132.218,43.8 133.338,43.8C135.168,43.8 136.082,42.885 137.874,40.272C139.704,37.621 142.093,33.907 143.25,29.912C144.445,25.917 145.042,22.072 145.042,18.376C145.042,16.061 144.837,14.213 144.426,12.832C144.053,11.413 143.344,10.349 142.298,9.64C141.253,8.931 139.778,8.576 137.874,8.576C135,8.576 132.33,9.173 129.866,10.368C127.402,11.525 125.424,13.205 123.93,15.408C122.474,17.573 121.746,20.093 121.746,22.968C121.746,23.976 121.84,24.723 122.026,25.208C122.213,25.656 118.05,31.461 118.05,31.536C116.184,31.536 119.021,25.619 118.05,24.872C117.117,24.125 116.65,22.931 116.65,21.288C116.65,18.712 117.696,16.248 119.786,13.896C121.914,11.544 125.33,8.464 128.802,7.008C132.312,5.552 137.447,3 141.293,3C145.959,3 147.264,7.269 149.354,9.808C151.445,12.347 152.49,15.856 152.49,20.336C152.49,24.331 151.744,28.493 150.25,32.824C148.757,37.155 146.442,40.832 143.306,43.856C140.208,46.843 136.381,48.336 131.826,48.336Z" fill="#000000"/>
<path d="M147.901,58.944C146.146,58.944 144.615,58.365 143.309,57.208C141.965,56.088 141.293,54.651 141.293,52.896C141.293,51.291 141.703,49.965 142.525,48.92C143.346,47.875 144.429,47.035 145.773,46.4C147.079,45.803 148.815,45.168 150.981,44.496L157.701,12.52C158.447,8.936 159.754,6.453 161.621,5.072C163.525,3.691 169.423,0 171.701,0C172.97,0 170.338,3.317 171.421,3.952C172.541,4.587 173.362,5.445 173.885,6.528C175.714,4.176 182.863,0 186.149,0C187.903,0 184.842,3.579 186.149,4.736C187.493,5.856 188.165,7.293 188.165,9.048C188.165,9.907 188.109,10.672 187.997,11.344L185.365,11.344C185.439,10.523 185.477,10.019 185.477,9.832C185.477,9.235 185.271,8.768 184.861,8.432C184.45,8.096 183.946,7.928 183.349,7.928C181.519,7.928 180.25,9.403 179.541,12.352L178.533,16.944L184.133,16.944L183.629,19.184L178.085,19.184L171.757,49.424C171.01,53.008 169.685,55.491 167.781,56.872C165.914,58.253 163.842,58.944 161.565,58.944C158.503,58.944 156.487,57.768 155.517,55.416C153.725,57.768 151.186,58.944 147.901,58.944ZM170.413,16.944L171.365,12.52L171.701,11.064C171.775,10.467 171.813,10.056 171.813,9.832C171.813,9.235 171.607,8.768 171.197,8.432C170.786,8.096 170.282,7.928 169.685,7.928C167.855,7.928 166.586,9.403 165.877,12.352L164.869,16.944L170.413,16.944ZM165.205,41.864L169.965,19.184L163.581,20.336L161.509,31.604L159.437,42.872L165.205,41.864ZM160.277,53.96C160.949,53.96 161.583,53.605 162.181,52.896C162.778,52.224 163.245,51.123 163.581,49.592L164.925,43.208L159.157,44.272L158.093,49.424C157.831,50.581 157.477,51.72 157.029,52.84C157.439,53.587 158.522,53.96 160.277,53.96ZM146.949,53.96C147.621,53.96 148.255,53.605 148.853,52.896C149.45,52.224 149.917,51.123 150.253,49.592L150.925,46.344C148.946,47.016 147.415,47.781 146.333,48.64C145.25,49.536 144.709,50.693 144.709,52.112C144.709,52.56 144.933,52.971 145.381,53.344C145.829,53.755 146.351,53.96 146.949,53.96Z" fill="#FF8282"/>
<path d="M189.442,48.336C186.679,48.336 183.749,50.059 182.218,48.64C183.384,44.864 180.706,42.493 180.706,39.432C180.706,36.856 181.21,34.019 182.218,30.92C183.226,27.821 184.869,25.152 187.146,22.912C189.423,20.635 192.317,19.496 195.826,19.496C199.933,19.496 201.986,21.288 201.986,24.872C201.986,26.963 201.388,28.885 200.194,30.64C198.999,32.395 197.413,33.813 195.434,34.896C193.455,35.941 192.186,37.155 189.946,37.304C189.871,38.424 188.994,38.555 188.994,38.928C188.994,40.757 189.311,42.008 189.946,42.68C190.581,43.315 191.607,43.632 193.026,43.632C195.042,43.632 196.759,43.165 198.178,42.232C199.634,41.299 201.22,39.88 202.938,37.976L204.842,37.976C200.698,44.883 195.565,48.336 189.442,48.336ZM186.149,34C187.53,33.925 192.242,33.44 193.474,32.544C194.743,31.648 195.751,30.509 196.498,29.128C197.282,27.747 197.674,26.291 197.674,24.76C197.674,23.229 197.207,22.464 196.274,22.464C194.93,22.464 193.605,23.64 192.298,25.992C191.029,28.344 186.709,31.013 186.149,34Z" fill="#000000"/>
<path d="M206.734,20L220.846,13.28L208.862,27.056C210.132,25.936 216.478,21.493 217.486,20.896C218.532,20.299 219.652,20 220.846,20C222.04,20 222.974,20.411 223.646,21.232C224.356,22.053 224.71,23.043 224.71,24.2C224.71,25.283 224.356,26.235 223.646,27.056C222.936,27.877 221.948,28.288 220.678,28.288C219.856,28.288 219.296,28.101 218.998,27.728C218.736,27.317 218.532,26.739 218.382,25.992C218.27,25.507 218.158,25.152 218.046,24.928C217.934,24.704 217.728,24.592 217.43,24.592C216.646,24.592 215.974,24.76 215.414,25.096C214.892,25.395 214.2,25.936 213.342,26.72L208.862,48L200.798,48L206.734,20Z" fill="#000000"/>
</svg>
