<svg width="76" height="70" viewBox="0 0 76 70" fill="none" xmlns="http://www.w3.org/2000/svg" xmlns:xlink="http://www.w3.org/1999/xlink">
<g filter="url(#filterI1_44;1_224)">
<path d="M76,35C76,54.33 58.987,70 38,70C17.013,70 0,54.33 0,35C0,15.67 17.013,0 38,0C58.987,0 76,15.67 76,35Z" fill="#FF6A6A"/>
</g>
<path d="M18,14.5C17.172,14.5 16.5,15.172 16.5,16C16.5,16.828 17.172,17.5 18,17.5L18,14.5ZM25.16,20L23.665,19.874L23.665,19.875L25.16,20ZM23.5,39.92L24.995,40.046L24.995,40.045L23.5,39.92ZM29.08,45.98L29.08,44.48L29.078,44.48L29.08,45.98ZM56,40.76L57.496,40.875L57.496,40.868L56,40.76ZM57.08,25.76L55.584,25.652L55.584,25.652L57.08,25.76ZM25.64,18.24C24.812,18.24 24.14,18.912 24.14,19.74C24.14,20.568 24.812,21.24 25.64,21.24L25.64,18.24ZM30.5,54.5C29.672,54.5 29,55.172 29,56C29,56.828 29.672,57.5 30.5,57.5L30.5,54.5ZM32,26.5C31.172,26.5 30.5,27.172 30.5,28C30.5,28.828 31.172,29.5 32,29.5L32,26.5ZM56,29.5C56.828,29.5 57.5,28.828 57.5,28C57.5,27.172 56.828,26.5 56,26.5L56,29.5ZM18,17.5L21.48,17.5L21.48,14.5L18,14.5L18,17.5ZM21.48,17.5C22.76,17.5 23.772,18.607 23.665,19.874L26.655,20.126C26.908,17.113 24.52,14.5 21.48,14.5L21.48,17.5ZM23.665,19.875L22.005,39.795L24.995,40.045L26.655,20.125L23.665,19.875ZM22.005,39.794C21.923,40.773 22.045,41.758 22.363,42.687L25.201,41.715C25.018,41.179 24.947,40.61 24.995,40.046L22.005,39.794ZM22.363,42.687C22.682,43.617 23.19,44.469 23.855,45.192L26.062,43.16C25.678,42.743 25.385,42.251 25.201,41.715L22.363,42.687ZM23.855,45.192C24.521,45.914 25.329,46.491 26.228,46.885L27.431,44.137C26.912,43.909 26.446,43.577 26.062,43.16L23.855,45.192ZM26.228,46.885C27.128,47.279 28.1,47.481 29.082,47.48L29.078,44.48C28.511,44.481 27.951,44.364 27.431,44.137L26.228,46.885ZM29.08,47.48L50.38,47.48L50.38,44.48L29.08,44.48L29.08,47.48ZM50.38,47.48C54.051,47.48 57.216,44.509 57.496,40.875L54.504,40.645C54.344,42.731 52.469,44.48 50.38,44.48L50.38,47.48ZM57.496,40.868L58.576,25.868L55.584,25.652L54.504,40.652L57.496,40.868ZM58.576,25.868C58.879,21.674 55.666,18.24 51.46,18.24L51.46,21.24C53.934,21.24 55.761,23.206 55.584,25.652L58.576,25.868ZM51.46,18.24L25.64,18.24L25.64,21.24L51.46,21.24L51.46,18.24ZM46.5,57.5C47.561,57.5 48.578,57.079 49.328,56.328L47.207,54.207C47.02,54.395 46.765,54.5 46.5,54.5L46.5,57.5ZM49.328,56.328C50.079,55.578 50.5,54.561 50.5,53.5L47.5,53.5C47.5,53.765 47.395,54.02 47.207,54.207L49.328,56.328ZM50.5,53.5C50.5,52.439 50.079,51.422 49.328,50.672L47.207,52.793C47.395,52.98 47.5,53.235 47.5,53.5L50.5,53.5ZM49.328,50.672C48.578,49.921 47.561,49.5 46.5,49.5L46.5,52.5C46.765,52.5 47.02,52.605 47.207,52.793L49.328,50.672ZM46.5,49.5C45.439,49.5 44.422,49.921 43.672,50.672L45.793,52.793C45.98,52.605 46.235,52.5 46.5,52.5L46.5,49.5ZM43.672,50.672C42.921,51.422 42.5,52.439 42.5,53.5L45.5,53.5C45.5,53.235 45.605,52.98 45.793,52.793L43.672,50.672ZM42.5,53.5C42.5,54.561 42.921,55.578 43.672,56.328L45.793,54.207C45.605,54.02 45.5,53.765 45.5,53.5L42.5,53.5ZM43.672,56.328C44.422,57.079 45.439,57.5 46.5,57.5L46.5,54.5C46.235,54.5 45.98,54.395 45.793,54.207L43.672,56.328ZM30.5,57.5C31.561,57.5 32.578,57.079 33.328,56.328L31.207,54.207C31.02,54.395 30.765,54.5 30.5,54.5L30.5,57.5ZM33.328,56.328C34.079,55.578 34.5,54.561 34.5,53.5L31.5,53.5C31.5,53.765 31.395,54.02 31.207,54.207L33.328,56.328ZM34.5,53.5C34.5,52.439 34.079,51.422 33.328,50.672L31.207,52.793C31.395,52.98 31.5,53.235 31.5,53.5L34.5,53.5ZM33.328,50.672C32.578,49.921 31.561,49.5 30.5,49.5L30.5,52.5C30.765,52.5 31.02,52.605 31.207,52.793L33.328,50.672ZM30.5,49.5C29.439,49.5 28.422,49.921 27.672,50.672L29.793,52.793C29.98,52.605 30.235,52.5 30.5,52.5L30.5,49.5ZM27.672,50.672C26.921,51.422 26.5,52.439 26.5,53.5L29.5,53.5C29.5,53.235 29.605,52.98 29.793,52.793L27.672,50.672ZM26.5,53.5C26.5,54.561 26.921,55.578 27.672,56.328L29.793,54.207C29.605,54.02 29.5,53.765 29.5,53.5L26.5,53.5ZM27.672,56.328C28.422,57.079 29.439,57.5 30.5,57.5L30.5,54.5C30.235,54.5 29.98,54.395 29.793,54.207L27.672,56.328ZM32,29.5L56,29.5L56,26.5L32,26.5L32,29.5Z" fill="#000000"/>
<defs>
<filter id="filterI1_44;1_224" x="-8" y="-8" width="54" height="51" filterUnits="userSpaceOnUse" color-interpolation-filters="sRGB">
<feFlood flood-opacity="0" result="BackgroundImageFix"/>
<feColorMatrix in="SourceAlpha" type="matrix" values="0 0 0 0 0 0 0 0 0 0 0 0 0 0 0 0 0 0 127 0" result="hardAlpha"/>
<feMorphology radius="2" operator="dilate" in="SourceAlpha" result="0dropshadow"/>
<feOffset dx="0" dy="1"/>
<feGaussianBlur stdDeviation="3"/>
<feComposite in2="hardAlpha" operator="out"/>
<feColorMatrix type="matrix" values="0 0 0 0 0 0 0 0 0 0 0 0 0 0 0 0 0 0 0.25 0"/>
<feBlend mode="normal" in2="BackgroundImageFix" result="0dropshadow"/>
<feBlend mode="normal" in="SourceGraphic" in2="0dropshadow" result="shape"/>
</filter>
</defs>
</svg>
