<svg width="64" height="64" viewBox="0 0 64 64" fill="none" xmlns="http://www.w3.org/2000/svg" xmlns:xlink="http://www.w3.org/1999/xlink">
<path d="M40.32,52.613L41.374,53.68L41.381,53.674L40.32,52.613ZM35.76,57.12L36.814,58.187L36.814,58.187L35.76,57.12ZM28.213,57.12L27.159,58.187L27.16,58.187L28.213,57.12ZM23.653,52.613L22.593,53.674L22.599,53.68L23.653,52.613ZM48,48.793L45.973,48.793L45.973,51.793L48,51.793L48,48.793ZM45.973,48.793C43.451,48.793 41.04,49.772 39.259,51.553L41.381,53.674C42.587,52.468 44.229,51.793 45.973,51.793L45.973,48.793ZM39.266,51.546L34.706,56.053L36.814,58.187L41.374,53.68L39.266,51.546ZM34.706,56.053C33.21,57.529 30.763,57.529 29.267,56.053L27.16,58.187C29.824,60.818 34.15,60.818 36.814,58.187L34.706,56.053ZM29.268,56.053L24.708,51.546L22.599,53.68L27.159,58.187L29.268,56.053ZM24.714,51.553C22.932,49.77 20.493,48.793 18,48.793L18,51.793C19.72,51.793 21.388,52.47 22.593,53.674L24.714,51.553ZM18,48.793L16,48.793L16,51.793L18,51.793L18,48.793ZM16,48.793C12.389,48.793 9.5,45.905 9.5,42.373L6.5,42.373C6.5,47.588 10.758,51.793 16,51.793L16,48.793ZM9.5,42.373L9.5,13.28L6.5,13.28L6.5,42.373L9.5,42.373ZM9.5,13.28C9.5,9.748 12.389,6.86 16,6.86L16,3.86C10.758,3.86 6.5,8.065 6.5,13.28L9.5,13.28ZM16,6.86L48,6.86L48,3.86L16,3.86L16,6.86ZM48,6.86C51.611,6.86 54.5,9.748 54.5,13.28L57.5,13.28C57.5,8.065 53.242,3.86 48,3.86L48,6.86ZM54.5,13.28L54.5,42.373L57.5,42.373L57.5,13.28L54.5,13.28ZM54.5,42.373C54.5,45.882 51.608,48.793 48,48.793L48,51.793C53.245,51.793 57.5,47.558 57.5,42.373L54.5,42.373Z" fill="#000000"/>
<path d="M31.253,39.893L30.763,41.311C30.777,41.316 30.791,41.32 30.806,41.325L31.253,39.893ZM20,25.36L18.5,25.36L20,25.36ZM32,21.333L30.802,22.236C31.086,22.612 31.529,22.833 32,22.833C32.471,22.833 32.914,22.612 33.198,22.236L32,21.333ZM44,25.36L45.5,25.365L45.5,25.36L44,25.36ZM32.272,38.47C32.284,38.466 32.264,38.474 32.207,38.481C32.153,38.489 32.085,38.493 32.01,38.493C31.935,38.493 31.864,38.489 31.803,38.481C31.74,38.473 31.706,38.463 31.701,38.462L30.806,41.325C31.205,41.45 31.638,41.493 32.01,41.493C32.378,41.493 32.818,41.451 33.221,41.316L32.272,38.47ZM31.744,38.476C30.22,37.948 27.609,36.537 25.399,34.278C23.207,32.037 21.5,29.06 21.5,25.36L18.5,25.36C18.5,30.06 20.686,33.75 23.254,36.376C25.805,38.983 28.82,40.638 30.763,41.311L31.744,38.476ZM21.5,25.36C21.5,22.478 23.819,20.167 26.667,20.167L26.667,17.167C22.154,17.167 18.5,20.829 18.5,25.36L21.5,25.36ZM26.667,20.167C28.36,20.167 29.845,20.968 30.802,22.236L33.198,20.43C31.701,18.446 29.346,17.167 26.667,17.167L26.667,20.167ZM33.198,22.236C34.155,20.968 35.64,20.167 37.333,20.167L37.333,17.167C34.654,17.167 32.299,18.446 30.802,20.43L33.198,22.236ZM37.333,20.167C40.181,20.167 42.5,22.478 42.5,25.36L45.5,25.36C45.5,20.829 41.846,17.167 37.333,17.167L37.333,20.167ZM42.5,25.355C42.488,29.058 40.779,32.037 38.59,34.279C36.383,36.538 33.779,37.949 32.256,38.476L33.237,41.311C35.181,40.638 38.19,38.982 40.736,36.375C43.301,33.749 45.485,30.062 45.5,25.365L42.5,25.355Z" fill="#000000"/>
</svg>
