<svg width="64" height="64" viewBox="0 0 64 64" fill="none" xmlns="http://www.w3.org/2000/svg" xmlns:xlink="http://www.w3.org/1999/xlink">
<path d="M31.68,34.08L31.63,35.579C31.709,35.582 31.788,35.578 31.867,35.568L31.68,34.08ZM23.253,25.36L24.753,25.361L24.753,25.36L23.253,25.36ZM32,16.613L32,18.113L32.003,18.113L32,16.613ZM32,58.667L32.003,57.167L32,57.167L32,58.667ZM14.027,51.68L12.535,51.521C12.485,51.995 12.662,52.465 13.014,52.786L14.027,51.68ZM18.747,44.8L17.917,43.551L17.909,43.556L18.747,44.8ZM45.253,44.8L46.091,43.556L46.087,43.553L45.253,44.8ZM32.507,32.592C32.17,32.549 31.83,32.549 31.493,32.592L31.867,35.568C31.955,35.557 32.045,35.557 32.133,35.568L32.507,32.592ZM31.73,32.581C29.858,32.518 28.083,31.729 26.781,30.382L24.624,32.467C26.467,34.374 28.979,35.49 31.63,35.579L31.73,32.581ZM26.781,30.382C25.48,29.035 24.752,27.234 24.753,25.361L21.753,25.359C21.752,28.011 22.781,30.56 24.624,32.467L26.781,30.382ZM24.753,25.36C24.753,21.359 27.978,18.113 32,18.113L32,15.113C26.315,15.113 21.753,19.708 21.753,25.36L24.753,25.36ZM32.003,18.113C33.901,18.11 35.724,18.853 37.08,20.182L39.18,18.039C37.262,16.159 34.683,15.109 31.997,15.113L32.003,18.113ZM37.08,20.182C38.436,21.51 39.215,23.319 39.25,25.217L42.249,25.162C42.2,22.477 41.098,19.919 39.18,18.039L37.08,20.182ZM39.25,25.217C39.285,27.115 38.572,28.95 37.266,30.328L39.443,32.392C41.291,30.443 42.299,27.847 42.249,25.162L39.25,25.217ZM37.266,30.328C35.96,31.706 34.165,32.515 32.268,32.581L32.372,35.579C35.056,35.485 37.595,34.341 39.443,32.392L37.266,30.328ZM48.958,50.576C44.335,54.825 38.282,57.178 32.003,57.167L31.997,60.167C39.03,60.179 45.81,57.544 50.988,52.784L48.958,50.576ZM32,57.167C25.456,57.167 19.521,54.677 15.04,50.574L13.014,52.786C18.026,57.376 24.677,60.167 32,60.167L32,57.167ZM15.518,51.839C15.726,49.883 16.996,47.786 19.584,46.045L17.909,43.556C14.791,45.654 12.86,48.464 12.535,51.521L15.518,51.839ZM19.577,46.05C22.933,43.82 27.441,42.66 32.02,42.66C36.6,42.66 41.092,43.82 44.419,46.047L46.087,43.553C42.161,40.926 37.053,39.66 32.02,39.66C26.986,39.66 21.867,40.927 17.917,43.551L19.577,46.05ZM44.416,46.045C47.004,47.786 48.274,49.883 48.482,51.839L51.465,51.521C51.14,48.464 49.209,45.654 46.091,43.556L44.416,46.045Z" fill="#000000"/>
<path d="M32,60.167C47.556,60.167 60.167,47.556 60.167,32L57.167,32C57.167,45.9 45.9,57.167 32,57.167L32,60.167ZM60.167,32C60.167,16.444 47.556,3.833 32,3.833L32,6.833C45.9,6.833 57.167,18.1 57.167,32L60.167,32ZM32,3.833C16.444,3.833 3.833,16.444 3.833,32L6.833,32C6.833,18.1 18.1,6.833 32,6.833L32,3.833ZM3.833,32C3.833,47.556 16.444,60.167 32,60.167L32,57.167C18.1,57.167 6.833,45.9 6.833,32L3.833,32Z" fill="#000000"/>
</svg>
