<svg width="64" height="64" viewBox="0 0 64 64" fill="none" xmlns="http://www.w3.org/2000/svg" xmlns:xlink="http://www.w3.org/1999/xlink">
<path d="M14.533,36.96L15.818,37.734L15.822,37.728L14.533,36.96ZM11.467,42.053L10.182,41.28L10.181,41.28L11.467,42.053ZM14.347,49.867L13.866,51.288L13.871,51.289L14.347,49.867ZM49.733,49.867L49.262,48.442L49.258,48.444L49.733,49.867ZM52.613,42.053L53.9,41.282L53.898,41.28L52.613,42.053ZM49.547,36.96L48.247,37.71L48.262,37.734L49.547,36.96ZM32.053,6.26C22.398,6.26 14.553,14.105 14.553,23.76L17.553,23.76C17.553,15.762 24.055,9.26 32.053,9.26L32.053,6.26ZM14.553,23.76L14.553,31.467L17.553,31.467L17.553,23.76L14.553,23.76ZM14.553,31.467C14.553,32.099 14.413,32.984 14.158,33.902C13.903,34.82 13.568,35.651 13.245,36.192L15.822,37.728C16.326,36.883 16.75,35.78 17.049,34.705C17.347,33.629 17.553,32.461 17.553,31.467L14.553,31.467ZM13.248,36.186L10.182,41.28L12.752,42.827L15.818,37.734L13.248,36.186ZM10.181,41.28C9.023,43.206 8.794,45.34 9.49,47.221C10.186,49.1 11.748,50.571 13.866,51.287L14.828,48.446C13.479,47.989 12.654,47.127 12.303,46.179C11.953,45.233 12.017,44.048 12.752,42.827L10.181,41.28ZM13.871,51.289C25.673,55.232 38.407,55.232 50.209,51.289L49.258,48.444C38.073,52.181 26.007,52.181 14.822,48.444L13.871,51.289ZM50.204,51.291C54.349,49.921 56.151,45.034 53.9,41.282L51.327,42.825C52.596,44.939 51.571,47.679 49.262,48.442L50.204,51.291ZM53.898,41.28L50.832,36.186L48.262,37.734L51.328,42.827L53.898,41.28ZM50.846,36.21C50.53,35.663 50.199,34.826 49.947,33.907C49.694,32.985 49.553,32.1 49.553,31.467L46.553,31.467C46.553,32.46 46.759,33.628 47.053,34.7C47.348,35.774 47.763,36.87 48.247,37.71L50.846,36.21ZM49.553,31.467L49.553,23.76L46.553,23.76L46.553,31.467L49.553,31.467ZM49.553,23.76C49.553,14.132 41.682,6.26 32.053,6.26L32.053,9.26C40.025,9.26 46.553,15.788 46.553,23.76L49.553,23.76Z" fill="#000000"/>
<path d="M27.12,8.533L25.723,7.986C25.515,8.517 25.626,9.12 26.01,9.542C26.393,9.964 26.982,10.132 27.531,9.976L27.12,8.533ZM37.398,7.091C33.904,6.096 30.202,6.096 26.709,7.091L27.531,9.976C30.487,9.134 33.62,9.134 36.576,9.976L37.398,7.091ZM28.517,9.081C29.071,7.666 30.448,6.673 32.053,6.673L32.053,3.673C29.179,3.673 26.716,5.454 25.723,7.986L28.517,9.081ZM32.053,6.673C33.659,6.673 35.036,7.666 35.59,9.081L38.383,7.986C37.391,5.454 34.928,3.673 32.053,3.673L32.053,6.673Z" fill="#000000"/>
<path d="M26.4,56.48L25.339,57.54L25.339,57.541L26.4,56.48ZM38.553,50.827C38.553,54.398 35.625,57.327 32.053,57.327L32.053,60.327C37.282,60.327 41.553,56.055 41.553,50.827L38.553,50.827ZM32.053,57.327C30.282,57.327 28.632,56.59 27.461,55.419L25.339,57.541C27.048,59.25 29.452,60.327 32.053,60.327L32.053,57.327ZM27.461,55.42C26.243,54.2 25.557,52.547 25.553,50.823L22.553,50.83C22.559,53.347 23.56,55.759 25.339,57.54L27.461,55.42Z" fill="#000000"/>
</svg>
