<svg width="1600" height="288" viewBox="0 0 1600 288" fill="none" xmlns="http://www.w3.org/2000/svg" xmlns:xlink="http://www.w3.org/1999/xlink">
<path d="M0,164.672L66.667,133.84C133.333,103.007 266.666,41.343 400,15.65C533.334,-10.044 666.666,0.234 800,15.65C933.334,31.066 1066.666,51.621 1200,56.759C1333.334,61.898 1466.666,51.621 1533.334,46.482L1600,41.343L1600,288L1533.334,288C1466.666,288 1333.334,288 1200,288C1066.666,288 933.334,288 800,288C666.666,288 533.334,288 400,288C266.666,288 133.333,288 66.667,288L0,288L0,164.672Z" clip-rule="evenodd" fill-rule="evenodd" transform="rotate(180 800 144)" fill="#FFCECE"/>
</svg>
