<svg width="56" height="34" viewBox="0 0 56 34" fill="none" xmlns="http://www.w3.org/2000/svg" xmlns:xlink="http://www.w3.org/1999/xlink">
<path d="M0.75,0.917C-0.078,0.917 -0.75,1.588 -0.75,2.417C-0.75,3.245 -0.078,3.917 0.75,3.917L0.75,0.917ZM53.25,3.917C54.078,3.917 54.75,3.245 54.75,2.417C54.75,1.588 54.078,0.917 53.25,0.917L53.25,3.917ZM0.75,15.5C-0.078,15.5 -0.75,16.172 -0.75,17C-0.75,17.828 -0.078,18.5 0.75,18.5L0.75,15.5ZM53.25,18.5C54.078,18.5 54.75,17.828 54.75,17C54.75,16.172 54.078,15.5 53.25,15.5L53.25,18.5ZM0.75,30.083C-0.078,30.083 -0.75,30.755 -0.75,31.583C-0.75,32.412 -0.078,33.083 0.75,33.083L0.75,30.083ZM53.25,33.083C54.078,33.083 54.75,32.412 54.75,31.583C54.75,30.755 54.078,30.083 53.25,30.083L53.25,33.083ZM0.75,3.917L53.25,3.917L53.25,0.917L0.75,0.917L0.75,3.917ZM0.75,18.5L53.25,18.5L53.25,15.5L0.75,15.5L0.75,18.5ZM0.75,33.083L53.25,33.083L53.25,30.083L0.75,30.083L0.75,33.083Z" fill="#000000"/>
</svg>
