<svg width="58" height="56" viewBox="0 0 58 56" fill="none" xmlns="http://www.w3.org/2000/svg" xmlns:xlink="http://www.w3.org/1999/xlink">
<path d="M26.5,44C26.5,44.829 27.172,45.5 28,45.5C28.828,45.5 29.5,44.829 29.5,44L26.5,44ZM29.5,36C29.5,35.172 28.828,34.5 28,34.5C27.172,34.5 26.5,35.172 26.5,36L29.5,36ZM22.853,3.52L23.791,4.691L23.792,4.69L22.853,3.52ZM4.373,18.32L5.307,19.494L5.311,19.491L4.373,18.32ZM1.413,26.08L2.893,25.833L2.891,25.824L1.413,26.08ZM4.96,47.307L3.481,47.554L3.481,47.557L4.96,47.307ZM51.04,47.307L52.519,47.558L52.519,47.554L51.04,47.307ZM54.587,26.08L56.066,26.327L56.067,26.322L54.587,26.08ZM51.627,18.32L52.567,17.152L52.563,17.148L51.627,18.32ZM33.147,3.547L32.207,4.716L32.21,4.718L33.147,3.547ZM29.5,44L29.5,36L26.5,36L26.5,44L29.5,44ZM21.916,2.349L3.436,17.149L5.311,19.491L23.791,4.691L21.916,2.349ZM3.44,17.146C2.14,18.179 1.149,19.714 0.542,21.305C-0.065,22.896 -0.348,24.701 -0.065,26.336L2.891,25.824C2.722,24.846 2.878,23.597 3.345,22.375C3.811,21.153 4.527,20.114 5.307,19.494L3.44,17.146ZM-0.066,26.327L3.481,47.554L6.439,47.06L2.893,25.833L-0.066,26.327ZM3.481,47.557C4.243,52.065 8.494,55.66 13.067,55.66L13.067,52.66C9.959,52.66 6.957,50.122 6.439,47.057L3.481,47.557ZM13.067,55.66L42.933,55.66L42.933,52.66L13.067,52.66L13.067,55.66ZM42.933,55.66C47.48,55.66 51.756,52.037 52.519,47.558L49.561,47.055C49.044,50.097 46.013,52.66 42.933,52.66L42.933,55.66ZM52.519,47.554L56.066,26.327L53.107,25.833L49.56,47.06L52.519,47.554ZM56.067,26.322C56.333,24.691 56.044,22.893 55.438,21.305C54.833,19.719 53.851,18.185 52.567,17.152L50.686,19.488C51.455,20.108 52.167,21.148 52.635,22.375C53.103,23.601 53.267,24.855 53.106,25.838L56.067,26.322ZM52.563,17.148L34.083,2.375L32.21,4.718L50.69,19.492L52.563,17.148ZM34.086,2.377C30.687,-0.355 25.293,-0.359 21.915,2.35L23.792,4.69C26.067,2.866 29.899,2.861 32.207,4.716L34.086,2.377Z" fill="#FF0202"/>
</svg>
