<svg width="144" height="800" viewBox="0 0 144 800" fill="none" xmlns="http://www.w3.org/2000/svg">
<path fill-rule="evenodd" clip-rule="evenodd" d="M61.6642 0L77.0802 33.3333C92.4963 66.6667 123.328 133.333 136.175 200C149.022 266.667 143.883 333.333 136.175 400C128.467 466.667 118.19 533.333 115.62 600C113.051 666.667 118.19 733.333 120.759 766.667L123.328 800H0L0 766.667C0 733.333 0 666.667 0 600C0 533.333 0 466.667 0 400C0 333.333 0 266.667 0 200C0 133.333 0 66.6667 0 33.3333V0L61.6642 0Z" fill="#FFCECE"/>
</svg>
