<svg width="32" height="32" viewBox="0 0 32 32" fill="none" xmlns="http://www.w3.org/2000/svg">
<path d="M24 25.1467H22.9867C21.92 25.1467 20.9067 25.56 20.16 26.3067L17.88 28.56C16.84 29.5867 15.1467 29.5867 14.1067 28.56L11.8267 26.3067C11.08 25.56 10.0533 25.1467 9 25.1467H8C5.78667 25.1467 4 23.3733 4 21.1867V6.63999C4 4.45333 5.78667 2.67999 8 2.67999H24C26.2133 2.67999 28 4.45333 28 6.63999V21.1867C28 23.36 26.2133 25.1467 24 25.1467Z" stroke="black" stroke-width="1.5" stroke-miterlimit="10" stroke-linecap="round" stroke-linejoin="round"/>
<path d="M16.3733 19.9467C16.1733 20.0133 15.84 20.0133 15.6267 19.9467C13.8933 19.3467 10 16.88 10 12.68C10 10.8267 11.4933 9.33334 13.3333 9.33334C14.4267 9.33334 15.3867 9.85334 16 10.6667C16.6133 9.85334 17.5733 9.33334 18.6667 9.33334C20.5067 9.33334 22 10.8267 22 12.68C21.9867 16.88 18.1067 19.3467 16.3733 19.9467V19.9467Z" stroke="black" stroke-width="1.5" stroke-linecap="round" stroke-linejoin="round"/>
</svg>
